<svg width="1915" height="915" xmlns="http://www.w3.org/2000/svg"><g><path d="M-28,-100L-92,29L16,-31Z" fill="#ffffe9" stroke="#ffffe9" fill-opacity="1" stroke-opacity="1"/><path d="M-28,-100L16,-31L196,-84Z" fill="#fffde0" stroke="#fffde0" fill-opacity="1" stroke-opacity="1"/><path d="M-28,-100L196,-84L355,-119Z" fill="#fff9d6" stroke="#fff9d6" fill-opacity="1" stroke-opacity="1"/><path d="M16,-31L-92,29L73,171Z" fill="#ffffd3" stroke="#ffffd3" fill-opacity="1" stroke-opacity="1"/><path d="M16,-31L73,171L130,56Z" fill="#fffdca" stroke="#fffdca" fill-opacity="1" stroke-opacity="1"/><path d="M16,-31L130,56L196,-84Z" fill="#fffbda" stroke="#fffbda" fill-opacity="1" stroke-opacity="1"/><path d="M196,-84L130,56L281,27Z" fill="#fff8cd" stroke="#fff8cd" fill-opacity="1" stroke-opacity="1"/><path d="M196,-84L281,27L355,-119Z" fill="#fff5cc" stroke="#fff5cc" fill-opacity="1" stroke-opacity="1"/><path d="M355,-119L281,27L325,18Z" fill="#fff3c8" stroke="#fff3c8" fill-opacity="1" stroke-opacity="1"/><path d="M355,-119L325,18L531,42Z" fill="#ffefc0" stroke="#ffefc0" fill-opacity="1" stroke-opacity="1"/><path d="M355,-119L531,42L554,-124Z" fill="#ffecbb" stroke="#ffecbb" fill-opacity="1" stroke-opacity="1"/><path d="M554,-124L531,42L621,57Z" fill="#ffe5af" stroke="#ffe5af" fill-opacity="1" stroke-opacity="1"/><path d="M554,-124L621,57L670,-107Z" fill="#ffe1af" stroke="#ffe1af" fill-opacity="1" stroke-opacity="1"/><path d="M554,-124L670,-107L865,-100Z" fill="#ffdba8" stroke="#ffdba8" fill-opacity="1" stroke-opacity="1"/><path d="M554,-124L865,-100L1782,-59Z" fill="#feb89a" stroke="#feb89a" fill-opacity="1" stroke-opacity="1"/><path d="M554,-124L1782,-59L2037,-49Z" fill="#ef8c8e" stroke="#ef8c8e" fill-opacity="1" stroke-opacity="1"/><path d="M670,-107L621,57L778,99Z" fill="#ffdb9f" stroke="#ffdb9f" fill-opacity="1" stroke-opacity="1"/><path d="M670,-107L778,99L865,-100Z" fill="#ffd5a4" stroke="#ffd5a4" fill-opacity="1" stroke-opacity="1"/><path d="M865,-100L778,99L983,43Z" fill="#fecd97" stroke="#fecd97" fill-opacity="1" stroke-opacity="1"/><path d="M865,-100L983,43L1032,-89Z" fill="#fec69e" stroke="#fec69e" fill-opacity="1" stroke-opacity="1"/><path d="M865,-100L1032,-89L1782,-59Z" fill="#fca494" stroke="#fca494" fill-opacity="1" stroke-opacity="1"/><path d="M1032,-89L983,43L1103,-65Z" fill="#febb9b" stroke="#febb9b" fill-opacity="1" stroke-opacity="1"/><path d="M1032,-89L1103,-65L1431,-46Z" fill="#fea895" stroke="#fea895" fill-opacity="1" stroke-opacity="1"/><path d="M1032,-89L1431,-46L1617,-52Z" fill="#f59590" stroke="#f59590" fill-opacity="1" stroke-opacity="1"/><path d="M1032,-89L1617,-52L1782,-59Z" fill="#ed8b8f" stroke="#ed8b8f" fill-opacity="1" stroke-opacity="1"/><path d="M1103,-65L983,43L1104,103Z" fill="#feb88e" stroke="#feb88e" fill-opacity="1" stroke-opacity="1"/><path d="M1103,-65L1104,103L1217,-41Z" fill="#feae91" stroke="#feae91" fill-opacity="1" stroke-opacity="1"/><path d="M1103,-65L1217,-41L1431,-46Z" fill="#fba193" stroke="#fba193" fill-opacity="1" stroke-opacity="1"/><path d="M1217,-41L1104,103L1240,129Z" fill="#fea881" stroke="#fea881" fill-opacity="1" stroke-opacity="1"/><path d="M1217,-41L1240,129L1400,37Z" fill="#f99d83" stroke="#f99d83" fill-opacity="1" stroke-opacity="1"/><path d="M1217,-41L1400,37L1431,-46Z" fill="#f6968e" stroke="#f6968e" fill-opacity="1" stroke-opacity="1"/><path d="M1431,-46L1400,37L1610,81Z" fill="#ed8a83" stroke="#ed8a83" fill-opacity="1" stroke-opacity="1"/><path d="M1431,-46L1610,81L1617,-52Z" fill="#e5868c" stroke="#e5868c" fill-opacity="1" stroke-opacity="1"/><path d="M1617,-52L1610,81L1765,67Z" fill="#d98085" stroke="#d98085" fill-opacity="1" stroke-opacity="1"/><path d="M1617,-52L1765,67L1782,-59Z" fill="#d38091" stroke="#d38091" fill-opacity="1" stroke-opacity="1"/><path d="M1782,-59L1765,67L1866,15Z" fill="#cb808e" stroke="#cb808e" fill-opacity="1" stroke-opacity="1"/><path d="M1782,-59L1866,15L1877,-55Z" fill="#c78096" stroke="#c78096" fill-opacity="1" stroke-opacity="1"/><path d="M1782,-59L1877,-55L2037,-49Z" fill="#c18097" stroke="#c18097" fill-opacity="1" stroke-opacity="1"/><path d="M1877,-55L1866,15L2037,-49Z" fill="#be8098" stroke="#be8098" fill-opacity="1" stroke-opacity="1"/><path d="M2037,-49L1866,15L2073,72Z" fill="#b78090" stroke="#b78090" fill-opacity="1" stroke-opacity="1"/><path d="M-92,29L-123,420L-24,215Z" fill="#ffffb6" stroke="#ffffb6" fill-opacity="1" stroke-opacity="1"/><path d="M-92,29L-24,215L73,171Z" fill="#ffffc2" stroke="#ffffc2" fill-opacity="1" stroke-opacity="1"/><path d="M130,56L73,171L277,248Z" fill="#fff9ae" stroke="#fff9ae" fill-opacity="1" stroke-opacity="1"/><path d="M130,56L277,248L281,27Z" fill="#fff7b2" stroke="#fff7b2" fill-opacity="1" stroke-opacity="1"/><path d="M281,27L277,248L333,217Z" fill="#fff4a0" stroke="#fff4a0" fill-opacity="1" stroke-opacity="1"/><path d="M281,27L333,217L325,18Z" fill="#fff3af" stroke="#fff3af" fill-opacity="1" stroke-opacity="1"/><path d="M325,18L333,217L531,42Z" fill="#fff0a7" stroke="#fff0a7" fill-opacity="1" stroke-opacity="1"/><path d="M531,42L333,217L509,261Z" fill="#ffed90" stroke="#ffed90" fill-opacity="1" stroke-opacity="1"/><path d="M531,42L509,261L621,57Z" fill="#ffe693" stroke="#ffe693" fill-opacity="1" stroke-opacity="1"/><path d="M621,57L509,261L673,258Z" fill="#ffe27f" stroke="#ffe27f" fill-opacity="1" stroke-opacity="1"/><path d="M621,57L673,258L778,99Z" fill="#ffdb83" stroke="#ffdb83" fill-opacity="1" stroke-opacity="1"/><path d="M778,99L673,258L784,233Z" fill="#ffd773" stroke="#ffd773" fill-opacity="1" stroke-opacity="1"/><path d="M778,99L784,233L983,43Z" fill="#fecf7f" stroke="#fecf7f" fill-opacity="1" stroke-opacity="1"/><path d="M983,43L784,233L1021,251Z" fill="#fec871" stroke="#fec871" fill-opacity="1" stroke-opacity="1"/><path d="M983,43L1021,251L1098,171Z" fill="#febc72" stroke="#febc72" fill-opacity="1" stroke-opacity="1"/><path d="M983,43L1098,171L1104,103Z" fill="#feb97c" stroke="#feb97c" fill-opacity="1" stroke-opacity="1"/><path d="M1104,103L1098,171L1240,129Z" fill="#fead72" stroke="#fead72" fill-opacity="1" stroke-opacity="1"/><path d="M1240,129L1098,171L1238,182Z" fill="#fea76b" stroke="#fea76b" fill-opacity="1" stroke-opacity="1"/><path d="M1240,129L1238,182L1435,176Z" fill="#f89b67" stroke="#f89b67" fill-opacity="1" stroke-opacity="1"/><path d="M1240,129L1435,176L1400,37Z" fill="#f59570" stroke="#f59570" fill-opacity="1" stroke-opacity="1"/><path d="M1400,37L1435,176L1610,81Z" fill="#ed8a72" stroke="#ed8a72" fill-opacity="1" stroke-opacity="1"/><path d="M1610,81L1435,176L1616,235Z" fill="#e58665" stroke="#e58665" fill-opacity="1" stroke-opacity="1"/><path d="M1610,81L1616,235L1780,178Z" fill="#d98068" stroke="#d98068" fill-opacity="1" stroke-opacity="1"/><path d="M1610,81L1780,178L1765,67Z" fill="#d48075" stroke="#d48075" fill-opacity="1" stroke-opacity="1"/><path d="M1765,67L1780,178L1866,15Z" fill="#cb807c" stroke="#cb807c" fill-opacity="1" stroke-opacity="1"/><path d="M1866,15L1780,178L1892,284Z" fill="#c6806c" stroke="#c6806c" fill-opacity="1" stroke-opacity="1"/><path d="M1866,15L1892,284L2046,238Z" fill="#bd806a" stroke="#bd806a" fill-opacity="1" stroke-opacity="1"/><path d="M1866,15L2046,238L2073,72Z" fill="#b7807b" stroke="#b7807b" fill-opacity="1" stroke-opacity="1"/><path d="M2073,72L2046,238L2067,695Z" fill="#b06c4a" stroke="#b06c4a" fill-opacity="1" stroke-opacity="1"/><path d="M-24,215L-123,420L37,320Z" fill="#ffee9c" stroke="#ffee9c" fill-opacity="1" stroke-opacity="1"/><path d="M-24,215L37,320L73,171Z" fill="#fffda9" stroke="#fffda9" fill-opacity="1" stroke-opacity="1"/><path d="M73,171L37,320L277,248Z" fill="#fff79d" stroke="#fff79d" fill-opacity="1" stroke-opacity="1"/><path d="M277,248L37,320L256,371Z" fill="#ffe888" stroke="#ffe888" fill-opacity="1" stroke-opacity="1"/><path d="M277,248L256,371L340,383Z" fill="#ffe07b" stroke="#ffe07b" fill-opacity="1" stroke-opacity="1"/><path d="M277,248L340,383L333,217Z" fill="#ffe984" stroke="#ffe984" fill-opacity="1" stroke-opacity="1"/><path d="M333,217L340,383L509,261Z" fill="#ffe57c" stroke="#ffe57c" fill-opacity="1" stroke-opacity="1"/><path d="M509,261L340,383L526,378Z" fill="#ffd86b" stroke="#ffd86b" fill-opacity="1" stroke-opacity="1"/><path d="M509,261L526,378L619,325Z" fill="#ffd567" stroke="#ffd567" fill-opacity="1" stroke-opacity="1"/><path d="M509,261L619,325L673,258Z" fill="#ffd86c" stroke="#ffd86c" fill-opacity="1" stroke-opacity="1"/><path d="M673,258L619,325L819,410Z" fill="#ffc757" stroke="#ffc757" fill-opacity="1" stroke-opacity="1"/><path d="M673,258L819,410L784,233Z" fill="#ffc85b" stroke="#ffc85b" fill-opacity="1" stroke-opacity="1"/><path d="M784,233L819,410L993,364Z" fill="#feb950" stroke="#feb950" fill-opacity="1" stroke-opacity="1"/><path d="M784,233L993,364L1021,251Z" fill="#febe5a" stroke="#febe5a" fill-opacity="1" stroke-opacity="1"/><path d="M1021,251L993,364L1088,370Z" fill="#feaa4c" stroke="#feaa4c" fill-opacity="1" stroke-opacity="1"/><path d="M1021,251L1088,370L1098,171Z" fill="#feb159" stroke="#feb159" fill-opacity="1" stroke-opacity="1"/><path d="M1098,171L1088,370L1238,182Z" fill="#feac5b" stroke="#feac5b" fill-opacity="1" stroke-opacity="1"/><path d="M1238,182L1088,370L1308,427Z" fill="#fd9345" stroke="#fd9345" fill-opacity="1" stroke-opacity="1"/><path d="M1238,182L1308,427L1370,377Z" fill="#f88842" stroke="#f88842" fill-opacity="1" stroke-opacity="1"/><path d="M1238,182L1370,377L1435,176Z" fill="#f69354" stroke="#f69354" fill-opacity="1" stroke-opacity="1"/><path d="M1435,176L1370,377L1529,326Z" fill="#f08046" stroke="#f08046" fill-opacity="1" stroke-opacity="1"/><path d="M1435,176L1529,326L1616,235Z" fill="#e88553" stroke="#e88553" fill-opacity="1" stroke-opacity="1"/><path d="M1616,235L1529,326L1691,427Z" fill="#df7042" stroke="#df7042" fill-opacity="1" stroke-opacity="1"/><path d="M1616,235L1691,427L1846,323Z" fill="#d46d45" stroke="#d46d45" fill-opacity="1" stroke-opacity="1"/><path d="M1616,235L1846,323L1780,178Z" fill="#d17d58" stroke="#d17d58" fill-opacity="1" stroke-opacity="1"/><path d="M1780,178L1846,323L1892,284Z" fill="#c77a56" stroke="#c77a56" fill-opacity="1" stroke-opacity="1"/><path d="M1892,284L1846,323L1990,371Z" fill="#c06d49" stroke="#c06d49" fill-opacity="1" stroke-opacity="1"/><path d="M1892,284L1990,371L2046,238Z" fill="#b97351" stroke="#b97351" fill-opacity="1" stroke-opacity="1"/><path d="M2046,238L1990,371L2067,695Z" fill="#b35940" stroke="#b35940" fill-opacity="1" stroke-opacity="1"/><path d="M-123,420L-128,844L-82,649Z" fill="#ff9e85" stroke="#ff9e85" fill-opacity="1" stroke-opacity="1"/><path d="M-123,420L-82,649L-25,562Z" fill="#ffb789" stroke="#ffb789" fill-opacity="1" stroke-opacity="1"/><path d="M-123,420L-25,562L37,320Z" fill="#ffd88f" stroke="#ffd88f" fill-opacity="1" stroke-opacity="1"/><path d="M37,320L-25,562L25,582Z" fill="#ffc986" stroke="#ffc986" fill-opacity="1" stroke-opacity="1"/><path d="M37,320L25,582L227,480Z" fill="#ffcf80" stroke="#ffcf80" fill-opacity="1" stroke-opacity="1"/><path d="M37,320L227,480L256,371Z" fill="#ffda7f" stroke="#ffda7f" fill-opacity="1" stroke-opacity="1"/><path d="M256,371L227,480L340,383Z" fill="#ffd275" stroke="#ffd275" fill-opacity="1" stroke-opacity="1"/><path d="M340,383L227,480L415,486Z" fill="#ffc96d" stroke="#ffc96d" fill-opacity="1" stroke-opacity="1"/><path d="M340,383L415,486L526,378Z" fill="#ffcb67" stroke="#ffcb67" fill-opacity="1" stroke-opacity="1"/><path d="M526,378L415,486L571,530Z" fill="#ffbc5c" stroke="#ffbc5c" fill-opacity="1" stroke-opacity="1"/><path d="M526,378L571,530L619,325Z" fill="#ffc25b" stroke="#ffc25b" fill-opacity="1" stroke-opacity="1"/><path d="M619,325L571,530L629,564Z" fill="#ffb152" stroke="#ffb152" fill-opacity="1" stroke-opacity="1"/><path d="M619,325L629,564L819,410Z" fill="#ffb44e" stroke="#ffb44e" fill-opacity="1" stroke-opacity="1"/><path d="M819,410L629,564L816,525Z" fill="#ff9c45" stroke="#ff9c45" fill-opacity="1" stroke-opacity="1"/><path d="M819,410L816,525L971,574Z" fill="#fe9341" stroke="#fe9341" fill-opacity="1" stroke-opacity="1"/><path d="M819,410L971,574L993,364Z" fill="#fe9f43" stroke="#fe9f43" fill-opacity="1" stroke-opacity="1"/><path d="M993,364L971,574L1088,370Z" fill="#fe9742" stroke="#fe9742" fill-opacity="1" stroke-opacity="1"/><path d="M1088,370L971,574L1161,569Z" fill="#fe7c39" stroke="#fe7c39" fill-opacity="1" stroke-opacity="1"/><path d="M1088,370L1161,569L1308,427Z" fill="#fe7d39" stroke="#fe7d39" fill-opacity="1" stroke-opacity="1"/><path d="M1308,427L1161,569L1253,563Z" fill="#fb6232" stroke="#fb6232" fill-opacity="1" stroke-opacity="1"/><path d="M1308,427L1253,563L1475,469Z" fill="#f66232" stroke="#f66232" fill-opacity="1" stroke-opacity="1"/><path d="M1308,427L1475,469L1370,377Z" fill="#f46d36" stroke="#f46d36" fill-opacity="1" stroke-opacity="1"/><path d="M1370,377L1475,469L1529,326Z" fill="#ef6d38" stroke="#ef6d38" fill-opacity="1" stroke-opacity="1"/><path d="M1529,326L1475,469L1558,530Z" fill="#e86035" stroke="#e86035" fill-opacity="1" stroke-opacity="1"/><path d="M1529,326L1558,530L1691,427Z" fill="#e15e38" stroke="#e15e38" fill-opacity="1" stroke-opacity="1"/><path d="M1691,427L1558,530L1667,500Z" fill="#dc4d33" stroke="#dc4d33" fill-opacity="1" stroke-opacity="1"/><path d="M1691,427L1667,500L1909,487Z" fill="#d05037" stroke="#d05037" fill-opacity="1" stroke-opacity="1"/><path d="M1691,427L1909,487L1846,323Z" fill="#ca5d3e" stroke="#ca5d3e" fill-opacity="1" stroke-opacity="1"/><path d="M1846,323L1909,487L1990,371Z" fill="#bf6141" stroke="#bf6141" fill-opacity="1" stroke-opacity="1"/><path d="M1990,371L1909,487L1968,546Z" fill="#bb513c" stroke="#bb513c" fill-opacity="1" stroke-opacity="1"/><path d="M1990,371L1968,546L2067,695Z" fill="#b63a36" stroke="#b63a36" fill-opacity="1" stroke-opacity="1"/><path d="M-25,562L-82,649L25,582Z" fill="#ffa880" stroke="#ffa880" fill-opacity="1" stroke-opacity="1"/><path d="M25,582L-82,649L123,667Z" fill="#ff9e79" stroke="#ff9e79" fill-opacity="1" stroke-opacity="1"/><path d="M25,582L123,667L227,480Z" fill="#ffa973" stroke="#ffa973" fill-opacity="1" stroke-opacity="1"/><path d="M227,480L123,667L208,666Z" fill="#ff9f6c" stroke="#ff9f6c" fill-opacity="1" stroke-opacity="1"/><path d="M227,480L208,666L320,659Z" fill="#ff9d66" stroke="#ff9d66" fill-opacity="1" stroke-opacity="1"/><path d="M227,480L320,659L415,486Z" fill="#ffac65" stroke="#ffac65" fill-opacity="1" stroke-opacity="1"/><path d="M415,486L320,659L488,678Z" fill="#ff9558" stroke="#ff9558" fill-opacity="1" stroke-opacity="1"/><path d="M415,486L488,678L571,530Z" fill="#ff9d54" stroke="#ff9d54" fill-opacity="1" stroke-opacity="1"/><path d="M571,530L488,678L629,564Z" fill="#ff8f4c" stroke="#ff8f4c" fill-opacity="1" stroke-opacity="1"/><path d="M629,564L488,678L674,647Z" fill="#ff8346" stroke="#ff8346" fill-opacity="1" stroke-opacity="1"/><path d="M629,564L674,647L816,525Z" fill="#ff8740" stroke="#ff8740" fill-opacity="1" stroke-opacity="1"/><path d="M816,525L674,647L800,719Z" fill="#ff753a" stroke="#ff753a" fill-opacity="1" stroke-opacity="1"/><path d="M816,525L800,719L935,705Z" fill="#fe6a36" stroke="#fe6a36" fill-opacity="1" stroke-opacity="1"/><path d="M816,525L935,705L971,574Z" fill="#fe7237" stroke="#fe7237" fill-opacity="1" stroke-opacity="1"/><path d="M971,574L935,705L1068,645Z" fill="#fe5f31" stroke="#fe5f31" fill-opacity="1" stroke-opacity="1"/><path d="M971,574L1068,645L1161,569Z" fill="#fe6132" stroke="#fe6132" fill-opacity="1" stroke-opacity="1"/><path d="M1161,569L1068,645L1218,642Z" fill="#fe502d" stroke="#fe502d" fill-opacity="1" stroke-opacity="1"/><path d="M1161,569L1218,642L1253,563Z" fill="#fd4f2c" stroke="#fd4f2c" fill-opacity="1" stroke-opacity="1"/><path d="M1253,563L1218,642L1432,649Z" fill="#f83f28" stroke="#f83f28" fill-opacity="1" stroke-opacity="1"/><path d="M1253,563L1432,649L1475,469Z" fill="#f4452a" stroke="#f4452a" fill-opacity="1" stroke-opacity="1"/><path d="M1475,469L1432,649L1558,530Z" fill="#ec402a" stroke="#ec402a" fill-opacity="1" stroke-opacity="1"/><path d="M1558,530L1432,649L1540,677Z" fill="#ea2c26" stroke="#ea2c26" fill-opacity="1" stroke-opacity="1"/><path d="M1558,530L1540,677L1675,701Z" fill="#e12326" stroke="#e12326" fill-opacity="1" stroke-opacity="1"/><path d="M1558,530L1675,701L1667,500Z" fill="#dd302b" stroke="#dd302b" fill-opacity="1" stroke-opacity="1"/><path d="M1667,500L1675,701L1897,707Z" fill="#d11e2a" stroke="#d11e2a" fill-opacity="1" stroke-opacity="1"/><path d="M1667,500L1897,707L1909,487Z" fill="#c93130" stroke="#c93130" fill-opacity="1" stroke-opacity="1"/><path d="M1909,487L1897,707L1968,546Z" fill="#be2d31" stroke="#be2d31" fill-opacity="1" stroke-opacity="1"/><path d="M1968,546L1897,707L2067,695Z" fill="#b91b2e" stroke="#b91b2e" fill-opacity="1" stroke-opacity="1"/><path d="M-82,649L-128,844L111,780Z" fill="#f2867e" stroke="#f2867e" fill-opacity="1" stroke-opacity="1"/><path d="M-82,649L111,780L123,667Z" fill="#fd8d74" stroke="#fd8d74" fill-opacity="1" stroke-opacity="1"/><path d="M123,667L111,780L208,666Z" fill="#fc896b" stroke="#fc896b" fill-opacity="1" stroke-opacity="1"/><path d="M208,666L111,780L206,840Z" fill="#f17f6b" stroke="#f17f6b" fill-opacity="1" stroke-opacity="1"/><path d="M208,666L206,840L317,847Z" fill="#ec7966" stroke="#ec7966" fill-opacity="1" stroke-opacity="1"/><path d="M208,666L317,847L320,659Z" fill="#f88060" stroke="#f88060" fill-opacity="1" stroke-opacity="1"/><path d="M320,659L317,847L488,678Z" fill="#f77c58" stroke="#f77c58" fill-opacity="1" stroke-opacity="1"/><path d="M488,678L317,847L552,845Z" fill="#eb6f54" stroke="#eb6f54" fill-opacity="1" stroke-opacity="1"/><path d="M488,678L552,845L674,647Z" fill="#f87146" stroke="#f87146" fill-opacity="1" stroke-opacity="1"/><path d="M674,647L552,845L723,817Z" fill="#ef6341" stroke="#ef6341" fill-opacity="1" stroke-opacity="1"/><path d="M674,647L723,817L800,719Z" fill="#f76339" stroke="#f76339" fill-opacity="1" stroke-opacity="1"/><path d="M800,719L723,817L875,848Z" fill="#ea543a" stroke="#ea543a" fill-opacity="1" stroke-opacity="1"/><path d="M800,719L875,848L935,705Z" fill="#f15436" stroke="#f15436" fill-opacity="1" stroke-opacity="1"/><path d="M935,705L875,848L1021,867Z" fill="#e74836" stroke="#e74836" fill-opacity="1" stroke-opacity="1"/><path d="M935,705L1021,867L1143,792Z" fill="#eb3f31" stroke="#eb3f31" fill-opacity="1" stroke-opacity="1"/><path d="M935,705L1143,792L1068,645Z" fill="#f9482d" stroke="#f9482d" fill-opacity="1" stroke-opacity="1"/><path d="M1068,645L1143,792L1218,642Z" fill="#fc3f29" stroke="#fc3f29" fill-opacity="1" stroke-opacity="1"/><path d="M1218,642L1143,792L1239,839Z" fill="#f02d2a" stroke="#f02d2a" fill-opacity="1" stroke-opacity="1"/><path d="M1218,642L1239,839L1370,832Z" fill="#e92328" stroke="#e92328" fill-opacity="1" stroke-opacity="1"/><path d="M1218,642L1370,832L1432,649Z" fill="#f22624" stroke="#f22624" fill-opacity="1" stroke-opacity="1"/><path d="M1432,649L1370,832L1540,677Z" fill="#ea1921" stroke="#ea1921" fill-opacity="1" stroke-opacity="1"/><path d="M1540,677L1370,832L1613,774Z" fill="#db0f25" stroke="#db0f25" fill-opacity="1" stroke-opacity="1"/><path d="M1540,677L1613,774L1675,701Z" fill="#d91025" stroke="#d91025" fill-opacity="1" stroke-opacity="1"/><path d="M1675,701L1613,774L1677,808Z" fill="#cc0728" stroke="#cc0728" fill-opacity="1" stroke-opacity="1"/><path d="M1675,701L1677,808L1897,707Z" fill="#c70a29" stroke="#c70a29" fill-opacity="1" stroke-opacity="1"/><path d="M1897,707L1677,808L1922,828Z" fill="#b6032c" stroke="#b6032c" fill-opacity="1" stroke-opacity="1"/><path d="M1897,707L1922,828L2067,695Z" fill="#af092d" stroke="#af092d" fill-opacity="1" stroke-opacity="1"/><path d="M2067,695L1922,828L1967,869Z" fill="#a20130" stroke="#a20130" fill-opacity="1" stroke-opacity="1"/><path d="M2067,695L1967,869L2064,1000Z" fill="#920034" stroke="#920034" fill-opacity="1" stroke-opacity="1"/><path d="M-128,844L-118,1080L-27,977Z" fill="#c9808d" stroke="#c9808d" fill-opacity="1" stroke-opacity="1"/><path d="M-128,844L-27,977L56,953Z" fill="#d18085" stroke="#d18085" fill-opacity="1" stroke-opacity="1"/><path d="M-128,844L56,953L111,780Z" fill="#de7f7e" stroke="#de7f7e" fill-opacity="1" stroke-opacity="1"/><path d="M111,780L56,953L176,942Z" fill="#d87b76" stroke="#d87b76" fill-opacity="1" stroke-opacity="1"/><path d="M111,780L176,942L206,840Z" fill="#df7a70" stroke="#df7a70" fill-opacity="1" stroke-opacity="1"/><path d="M206,840L176,942L317,847Z" fill="#db776b" stroke="#db776b" fill-opacity="1" stroke-opacity="1"/><path d="M317,847L176,942L352,1012Z" fill="#d07569" stroke="#d07569" fill-opacity="1" stroke-opacity="1"/><path d="M317,847L352,1012L544,978Z" fill="#cd705f" stroke="#cd705f" fill-opacity="1" stroke-opacity="1"/><path d="M317,847L544,978L552,845Z" fill="#d86d56" stroke="#d86d56" fill-opacity="1" stroke-opacity="1"/><path d="M552,845L544,978L658,1010Z" fill="#cd644f" stroke="#cd644f" fill-opacity="1" stroke-opacity="1"/><path d="M552,845L658,1010L723,817Z" fill="#d75f47" stroke="#d75f47" fill-opacity="1" stroke-opacity="1"/><path d="M723,817L658,1010L765,946Z" fill="#d15942" stroke="#d15942" fill-opacity="1" stroke-opacity="1"/><path d="M723,817L765,946L875,848Z" fill="#db543d" stroke="#db543d" fill-opacity="1" stroke-opacity="1"/><path d="M875,848L765,946L1013,935Z" fill="#d34c3c" stroke="#d34c3c" fill-opacity="1" stroke-opacity="1"/><path d="M875,848L1013,935L1021,867Z" fill="#d84538" stroke="#d84538" fill-opacity="1" stroke-opacity="1"/><path d="M1021,867L1013,935L1178,992Z" fill="#cf3836" stroke="#cf3836" fill-opacity="1" stroke-opacity="1"/><path d="M1021,867L1178,992L1218,926Z" fill="#cf2f33" stroke="#cf2f33" fill-opacity="1" stroke-opacity="1"/><path d="M1021,867L1218,926L1143,792Z" fill="#dc3031" stroke="#dc3031" fill-opacity="1" stroke-opacity="1"/><path d="M1143,792L1218,926L1239,839Z" fill="#de272e" stroke="#de272e" fill-opacity="1" stroke-opacity="1"/><path d="M1239,839L1218,926L1370,832Z" fill="#d71f2c" stroke="#d71f2c" fill-opacity="1" stroke-opacity="1"/><path d="M1370,832L1218,926L1444,1029Z" fill="#c8172d" stroke="#c8172d" fill-opacity="1" stroke-opacity="1"/><path d="M1370,832L1444,1029L1612,954Z" fill="#bd0b2c" stroke="#bd0b2c" fill-opacity="1" stroke-opacity="1"/><path d="M1370,832L1612,954L1613,774Z" fill="#c70829" stroke="#c70829" fill-opacity="1" stroke-opacity="1"/><path d="M1613,774L1612,954L1677,808Z" fill="#be032b" stroke="#be032b" fill-opacity="1" stroke-opacity="1"/><path d="M1677,808L1612,954L1719,984Z" fill="#ad012f" stroke="#ad012f" fill-opacity="1" stroke-opacity="1"/><path d="M1677,808L1719,984L1875,939Z" fill="#a50030" stroke="#a50030" fill-opacity="1" stroke-opacity="1"/><path d="M1677,808L1875,939L1922,828Z" fill="#a8002f" stroke="#a8002f" fill-opacity="1" stroke-opacity="1"/><path d="M1922,828L1875,939L1967,869Z" fill="#9a0032" stroke="#9a0032" fill-opacity="1" stroke-opacity="1"/><path d="M1967,869L1875,939L2064,1000Z" fill="#8a0036" stroke="#8a0036" fill-opacity="1" stroke-opacity="1"/><path d="M-27,977L-118,1080L103,1137Z" fill="#b6808a" stroke="#b6808a" fill-opacity="1" stroke-opacity="1"/><path d="M-27,977L103,1137L56,953Z" fill="#bf7e82" stroke="#bf7e82" fill-opacity="1" stroke-opacity="1"/><path d="M56,953L103,1137L176,942Z" fill="#c17c7b" stroke="#c17c7b" fill-opacity="1" stroke-opacity="1"/><path d="M176,942L103,1137L179,1164Z" fill="#b37a7b" stroke="#b37a7b" fill-opacity="1" stroke-opacity="1"/><path d="M176,942L179,1164L352,1012Z" fill="#bb7772" stroke="#bb7772" fill-opacity="1" stroke-opacity="1"/><path d="M352,1012L179,1164L361,1126Z" fill="#b0746f" stroke="#b0746f" fill-opacity="1" stroke-opacity="1"/><path d="M352,1012L361,1126L544,978Z" fill="#bb6f61" stroke="#bb6f61" fill-opacity="1" stroke-opacity="1"/><path d="M544,978L361,1126L577,1125Z" fill="#b46c5c" stroke="#b46c5c" fill-opacity="1" stroke-opacity="1"/><path d="M544,978L577,1125L658,1010Z" fill="#bb6352" stroke="#bb6352" fill-opacity="1" stroke-opacity="1"/><path d="M658,1010L577,1125L718,1092Z" fill="#b45f4f" stroke="#b45f4f" fill-opacity="1" stroke-opacity="1"/><path d="M658,1010L718,1092L765,946Z" fill="#bf5a47" stroke="#bf5a47" fill-opacity="1" stroke-opacity="1"/><path d="M765,946L718,1092L799,1172Z" fill="#b55647" stroke="#b55647" fill-opacity="1" stroke-opacity="1"/><path d="M765,946L799,1172L939,1141Z" fill="#b25045" stroke="#b25045" fill-opacity="1" stroke-opacity="1"/><path d="M765,946L939,1141L1013,935Z" fill="#c04b3f" stroke="#c04b3f" fill-opacity="1" stroke-opacity="1"/><path d="M1013,935L939,1141L1160,1138Z" fill="#b43c3e" stroke="#b43c3e" fill-opacity="1" stroke-opacity="1"/><path d="M1013,935L1160,1138L1178,992Z" fill="#bd3238" stroke="#bd3238" fill-opacity="1" stroke-opacity="1"/><path d="M1178,992L1160,1138L1303,1118Z" fill="#b02538" stroke="#b02538" fill-opacity="1" stroke-opacity="1"/><path d="M1178,992L1303,1118L1218,926Z" fill="#bd2334" stroke="#bd2334" fill-opacity="1" stroke-opacity="1"/><path d="M1218,926L1303,1118L1444,1029Z" fill="#b61a32" stroke="#b61a32" fill-opacity="1" stroke-opacity="1"/><path d="M1444,1029L1303,1118L1387,1161Z" fill="#a41433" stroke="#a41433" fill-opacity="1" stroke-opacity="1"/><path d="M1444,1029L1387,1161L1555,1101Z" fill="#a00c32" stroke="#a00c32" fill-opacity="1" stroke-opacity="1"/><path d="M1444,1029L1555,1101L1612,954Z" fill="#a50831" stroke="#a50831" fill-opacity="1" stroke-opacity="1"/><path d="M1612,954L1555,1101L1703,1109Z" fill="#970334" stroke="#970334" fill-opacity="1" stroke-opacity="1"/><path d="M1612,954L1703,1109L1719,984Z" fill="#990033" stroke="#990033" fill-opacity="1" stroke-opacity="1"/><path d="M1719,984L1703,1109L1896,1151Z" fill="#820038" stroke="#820038" fill-opacity="1" stroke-opacity="1"/><path d="M1719,984L1896,1151L1875,939Z" fill="#870037" stroke="#870037" fill-opacity="1" stroke-opacity="1"/><path d="M1875,939L1896,1151L2064,1000Z" fill="#7a0039" stroke="#7a0039" fill-opacity="1" stroke-opacity="1"/><path d="M2064,1000L1896,1151L2041,1134Z" fill="#68003e" stroke="#68003e" fill-opacity="1" stroke-opacity="1"/><path d="M-118,1080L179,1164L103,1137Z" fill="#aa7e86" stroke="#aa7e86" fill-opacity="1" stroke-opacity="1"/><path d="M179,1164L799,1172L577,1125Z" fill="#a56a5e" stroke="#a56a5e" fill-opacity="1" stroke-opacity="1"/><path d="M179,1164L577,1125L361,1126Z" fill="#a8716a" stroke="#a8716a" fill-opacity="1" stroke-opacity="1"/><path d="M577,1125L799,1172L718,1092Z" fill="#a95b4d" stroke="#a95b4d" fill-opacity="1" stroke-opacity="1"/><path d="M799,1172L1387,1161L1160,1138Z" fill="#a3323e" stroke="#a3323e" fill-opacity="1" stroke-opacity="1"/><path d="M799,1172L1160,1138L939,1141Z" fill="#a54644" stroke="#a54644" fill-opacity="1" stroke-opacity="1"/><path d="M1160,1138L1387,1161L1303,1118Z" fill="#a21e38" stroke="#a21e38" fill-opacity="1" stroke-opacity="1"/><path d="M1387,1161L1896,1151L1703,1109Z" fill="#820138" stroke="#820138" fill-opacity="1" stroke-opacity="1"/><path d="M1387,1161L1703,1109L1555,1101Z" fill="#920735" stroke="#920735" fill-opacity="1" stroke-opacity="1"/></g></svg>